<?xml version="1.0" encoding="UTF-8" standalone="no"?>
<svg
   xmlns:dc="http://purl.org/dc/elements/1.1/"
   xmlns:cc="http://creativecommons.org/ns#"
   xmlns:rdf="http://www.w3.org/1999/02/22-rdf-syntax-ns#"
   xmlns:svg="http://www.w3.org/2000/svg"
   xmlns="http://www.w3.org/2000/svg"
   xmlns:sodipodi="http://sodipodi.sourceforge.net/DTD/sodipodi-0.dtd"
   xmlns:inkscape="http://www.inkscape.org/namespaces/inkscape"
   sodipodi:docname="modal-background.svg"
   inkscape:version="1.0 (4035a4fb49, 2020-05-01)"
   id="svg773"
   version="1.1"
   viewBox="0 0 210 297"
   height="297mm"
   width="210mm">
  <defs
     id="defs767" />
  <sodipodi:namedview
     inkscape:window-maximized="0"
     inkscape:window-y="92"
     inkscape:window-x="64"
     inkscape:window-height="879"
     inkscape:window-width="1506"
     showgrid="false"
     inkscape:document-rotation="0"
     inkscape:current-layer="layer1"
     inkscape:document-units="mm"
     inkscape:cy="560"
     inkscape:cx="400"
     inkscape:zoom="0.35"
     inkscape:pageshadow="2"
     inkscape:pageopacity="0.0"
     borderopacity="1.0"
     bordercolor="#666666"
     pagecolor="#ffffff"
     id="base" />
  <metadata
     id="metadata770">
    <rdf:RDF>
      <cc:Work
         rdf:about="">
        <dc:format>image/svg+xml</dc:format>
        <dc:type
           rdf:resource="http://purl.org/dc/dcmitype/StillImage" />
        <dc:title></dc:title>
      </cc:Work>
    </rdf:RDF>
  </metadata>
  <g
     id="layer1"
     inkscape:groupmode="layer"
     inkscape:label="Layer 1">
    <path
       style="stroke-width:0.264583"
       id="path286"
       d="m 99.018165,113.7501 -0.75406,0.76729 -0.7673,-0.76729 h -10.99343 q -0.80698,0 -0.80698,0.80698 v 16.1925 l 0.46302,0.46302 -0.46302,0.44979 v 1.30969 l 0.74083,0.74083 -0.74083,0.74083 v 2.83104 q 0,0.80698 0.80698,0.80698 h 2.32833 l 0.58208,-0.58208 0.58209,0.58208 h 19.221985 q 0.8202,0 0.8202,-0.80698 v -1.50812 l -1.08479,-1.08479 1.08479,-1.09802 v -14.59177 l -0.8202,-0.82021 0.8202,-0.83344 v -2.79135 q 0,-0.80698 -0.8202,-0.80698 H 99.018165 m -13.85094,23.53468 v -22.7277 q 0,-1.33615 1.33615,-1.33615 h 22.714485 q 1.34937,0 1.34937,1.33615 v 22.7277 q 0,1.33615 -1.34937,1.33615 H 86.503375 q -1.33615,0 -1.33615,-1.33615"
       fill="#b7916a"
       stroke="none" />
    <path
       style="stroke-width:0.264583"
       id="path288"
       d="m 99.018165,113.7501 h 10.199695 q 0.8202,0 0.8202,0.80698 v 2.79135 l -0.8202,0.83344 0.8202,0.82021 v 14.59177 l -1.08479,1.09802 1.08479,1.08479 v 1.50812 q 0,0.80698 -0.8202,0.80698 H 89.995875 l -0.58209,-0.58208 -0.58208,0.58208 h -2.32833 q -0.80698,0 -0.80698,-0.80698 v -2.83104 l 0.74083,-0.74083 -0.74083,-0.74083 v -1.30969 l 0.46302,-0.44979 -0.46302,-0.46302 v -16.1925 q 0,-0.80698 0.80698,-0.80698 h 10.99343 l 0.7673,0.76729 0.75406,-0.76729"
       fill="#97714a"
       stroke="none" />
    <path
       style="stroke-width:0.264583"
       id="path290"
       d="m 110.60692,113.18124 q 0.48948,0.44979 0.48948,1.37584 v 22.7277 q 0,0.92605 -0.48948,1.37584 -0.44979,0.48948 -1.38906,0.48948 H 86.503375 q -1.86532,0 -1.86532,-1.86532 v -22.7277 q 0,-1.86532 1.86532,-1.86532 h 22.714485 q 0.93927,0 1.38906,0.48948 m -25.439695,24.10354 q 0,1.33615 1.33615,1.33615 h 22.714485 q 1.34937,0 1.34937,-1.33615 v -22.7277 q 0,-1.33615 -1.34937,-1.33615 H 86.503375 q -1.33615,0 -1.33615,1.33615 v 22.7277"
       fill="#886644"
       stroke="none" />
  </g>
</svg>
